<svg version="1.0" xmlns="http://www.w3.org/2000/svg"
 width="246.000000pt" height="246.000000pt" viewBox="0 0 246.000000 246.000000"
 preserveAspectRatio="xMidYMid meet">
  <rect width="100%" height="100%" fill="white"/>
  <g transform="translate(0.000000,246.000000) scale(0.100000,-0.100000)"
  fill="#000000" stroke="none">
    <path d="M590 2004 c-212 -157 -397 -293 -413 -302 -15 -9 -27 -20 -27 -25 0
    -4 4 -6 9 -2 5 3 112 16 238 30 125 14 240 27 256 30 l27 5 0 -90 0 -90 54 44
    c122 99 252 170 377 206 135 39 323 37 534 -5 l30 -7 -3 120 -3 119 140 83
    c78 45 143 86 147 91 15 25 19 -5 17 -151 -2 -131 -5 -164 -19 -186 -15 -22
    -15 -29 -5 -46 9 -15 10 -23 2 -28 -8 -4 -11 -59 -9 -176 l3 -169 55 0 55 0 3
    178 c1 108 -1 176 -7 173 -5 -4 -7 10 -4 34 4 31 2 41 -11 46 -14 5 -16 29
    -16 184 l0 178 30 12 c17 7 33 17 36 21 3 5 -239 9 -553 9 l-558 -1 -385 -285z
    m1340 238 c0 -4 -57 -41 -126 -82 -70 -41 -135 -86 -145 -99 -15 -19 -19 -41
    -19 -105 0 -44 -4 -87 -9 -94 -7 -12 -25 -11 -108 2 -222 35 -390 11 -590 -85
    -46 -22 -83 -44 -83 -49 0 -6 -5 -10 -10 -10 -6 0 -29 -13 -52 -30 -53 -38
    -68 -38 -68 0 0 19 -9 40 -24 55 -27 27 -43 27 -246 5 -111 -13 -143 -13 -135
    0 4 6 50 43 103 82 53 39 165 122 247 183 83 61 189 139 236 173 l85 62 175 2
    c275 5 769 -2 769 -10z m86 -449 c4 -38 7 -117 7 -177 -1 -110 -11 -142 -35
    -117 -10 9 -13 52 -11 154 1 78 4 151 7 162 2 11 5 26 5 33 1 6 5 12 10 12 5
    0 13 -30 17 -67z"/>
    <path d="M1382 1738 c9 -7 29 -20 45 -29 37 -20 79 -100 101 -191 l18 -73 65
    0 64 0 0 135 0 135 -75 11 c-41 6 -111 14 -155 18 -66 6 -77 4 -63 -6z m193
    -42 c28 -4 55 -14 63 -23 12 -17 16 -130 6 -171 -5 -19 -12 -23 -37 -20 -29 3
    -33 8 -53 73 -11 39 -28 85 -38 103 -15 30 -14 58 2 48 4 -2 30 -7 57 -10z"/>
    <path d="M975 1641 c-87 -50 -142 -90 -220 -159 l-48 -43 11 -77 c23 -149 102
    -260 253 -356 41 -26 126 -77 189 -114 72 -42 139 -91 181 -132 59 -58 68 -71
    78 -121 16 -77 0 -140 -48 -188 -64 -64 -181 -79 -307 -40 -120 37 -217 157
    -302 371 l-11 27 -47 -14 c-26 -8 -52 -19 -57 -24 -18 -18 10 -185 64 -384 12
    -47 32 -60 141 -91 345 -100 688 -15 829 205 65 102 88 261 54 376 -37 125
    -117 195 -395 348 -195 107 -272 166 -301 230 -25 55 -25 140 2 189 11 21 19
    39 17 41 -2 1 -39 -19 -83 -44z m15 -117 c8 -117 69 -185 250 -281 58 -31 108
    -61 112 -67 4 -6 8 -8 8 -4 0 15 207 -118 251 -162 85 -85 119 -196 99 -325
    -22 -142 -103 -252 -238 -321 -102 -51 -161 -65 -297 -69 -167 -4 -368 34
    -413 79 -20 19 -57 160 -73 271 -11 83 -11 98 2 106 28 18 38 7 89 -95 91
    -184 196 -272 353 -296 200 -31 342 84 321 260 -13 118 -95 200 -334 340 -164
    95 -154 88 -232 160 -88 81 -123 147 -135 256 -5 49 -4 52 36 89 52 50 173
    135 186 131 6 -1 12 -34 15 -72z"/>
  </g>
</svg>
